<svg width="32" height="32" viewBox="0 0 32 32" fill="none" xmlns="http://www.w3.org/2000/svg">
<rect x="2" y="2" width="28" height="28" rx="2" fill="#1D3557"/>
<path d="M12 5.5C5.39286 5.5 8.52471 11.4626 7 14C6.2489 15.25 5.25 15.5 4 15.5C5.25 15.5 6.28985 15.343 7 17C8.5 20.5 5.39286 25.5 12 25.5" stroke="#F1FAEE"/>
<circle cx="12.5" cy="5.5" r="1.5" fill="#F1FAEE"/>
<circle cx="12.5" cy="25.5" r="1.5" fill="#F1FAEE"/>
<path d="M20 5.5C26.6071 5.5 23.4753 11.4626 25 14C25.7511 15.25 26.75 15.5 28 15.5C26.75 15.5 25.7101 15.343 25 17C23.5 20.5 26.6071 25.5 20 25.5" stroke="#F1FAEE"/>
<ellipse rx="1.5" ry="1.5" transform="matrix(-1 0 0 1 19.5 5.5)" fill="#F1FAEE"/>
<ellipse rx="1.5" ry="1.5" transform="matrix(-1 0 0 1 19.5 25.5)" fill="#F1FAEE"/>
<circle cx="16" cy="16" r="3" fill="#F1FAEE"/>
</svg>
