<svg xmlns="http://www.w3.org/2000/svg" enable-background="new 0 0 66 66" viewBox="0 0 66 66"><path d="M6.6 64.7c.4.4 1 .4 1.4 0l6.8-6.8c.4-.4.4-1 0-1.4s-1-.4-1.4 0l-6.8 6.8C6.2 63.7 6.2 64.3 6.6 64.7zM8.4 56.2L1.5 63c-.4.4-.4 1 0 1.4.4.4 1 .4 1.4 0l6.8-6.8c.4-.4.4-1 0-1.4S8.7 55.8 8.4 56.2zM2.7 59.4l6.8-6.8c.4-.4.4-1 0-1.4s-1-.4-1.4 0L1.3 58c-.4.4-.4 1 0 1.4C1.7 59.8 2.3 59.8 2.7 59.4zM51.9 28.1C51.9 28.1 51.9 28.1 51.9 28.1c-3.2 3.2-5.9 6-10.8 10.8-.1-1.1-.1-2.2 0-3.4l13-13C62 14.5 63 4.5 63 4.1c0-.3-.1-.6-.3-.8C62.5 3.1 62.2 3 61.9 3c-.4 0-10.4 1-18.4 8.9l-13 13c-1.3.1-2.1.1-3.4 0l4.4-4.4c0 0 0 0 0 0 0 0 0 0 0 0l6.4-6.4c0 0 0 0 0 0 0 0 0 0 0-.1 5.1-5.2 5.8-11.7 5.8-12 0-.3-.1-.6-.3-.8C43.3 1.1 43 1 42.7 1c-.3 0-6.8.7-12 5.8 0 0 0 0-.1 0 0 0 0 0 0 0l-6.4 6.4c0 0 0 0 0 0 0 0 0 0 0 0L15 22.6c-.1 0-3-1.3-6.9 1.7l-3 2c-.3.2-.4.5-.5.8 0 5.1 3 11.8 8.8 15l-3.1 3.1c0 0 0 0 0 .1-1.6 2 1 5.8 2.9 7.6 1.9 1.9 5.8 4.7 7.8 2.7 0 0 0 0 0 0l3-3c4.9 8.8 14.9 8.7 15 8.8.3 0 .6-.2.8-.5 1.6-2.8 4.8-5.8 3.8-9.6L43.5 51c4.5-4.5 8.7-8.7 15.7-15.7 0 0 0 0 0 0 0 0 .1-.1.1-.1 5.1-5.2 5.7-11.7 5.8-11.9 0-.3-.1-.6-.3-.8-.2-.2-.5-.3-.8-.3C63.6 22.2 57.1 22.9 51.9 28.1 51.9 28 51.9 28 51.9 28.1zM57.7 33.9l-4.9 4.9c-.8-1.7-2.8-3.6-4.4-4.4l4.8-4.8C54.5 29.4 57.8 32.9 57.7 33.9zM46.4 45.2c-.8-1.5-2.7-3.6-4.5-4.4l4.9-4.9c1.2-.1 4.5 3.3 4.5 4.4L46.4 45.2zM41.5 42.8c1.9 1.2 3.4 3.4 3.4 4 0 0 0 0 0 0l-2.1 2.1C42.3 46.9 41.9 44.9 41.5 42.8zM38.3 20c.2-.2.7-.1.8 0 2.3.6 6.3 4.6 6.9 6.9 0 .1.2.6 0 .8l-4.9 4.9c-1.1-2.9-4.8-6.6-7.7-7.7L38.3 20zM45 13.3c.2-.2.7-.1.8 0 2.3.6 6.3 4.6 6.9 6.9 0 .1.2.6 0 .8l-4.9 4.9c-1.1-2.9-4.8-6.6-7.7-7.7L45 13.3zM31.7 26.6c.2-.2.7-.1.8 0 2.3.6 6.3 4.6 6.9 6.9 0 .1.1.6 0 .8 0 0 0 0 0 0l-4.9 4.9c-1.1-2.9-4.8-6.6-7.7-7.7L31.7 26.6zM27.9 45.8c-1.1-2.9-4.8-6.6-7.7-7.7l4.9-4.9c.2-.2.7-.1.8 0 3.3.9 7.8 6.8 6.9 7.7C32.6 41.1 27.6 46.1 27.9 45.8zM18.4 39.9c.2-.2.7-.1.8 0 2.3.6 6.3 4.6 6.9 6.9 0 .1.2.6 0 .8l-4.8 4.8c-.5-1.5-1.7-3.2-3.1-4.6-1.5-1.5-3.2-2.6-4.6-3.1L18.4 39.9zM54.4 19.1c-1.1-2.8-4.7-6.4-7.5-7.5 5.4-4.4 11.4-6 13.9-6.4C60.3 7.7 58.8 13.7 54.4 19.1zM19.2 21.1c.9-.1 3.1 1.9 4 3.4-2.2-.3-4.2-.8-6-1.3L19.2 21.1zM32 8.3c1.1-.1 4.5 3.2 4.4 4.4l-4.8 4.8c-.8-1.7-2.8-3.6-4.4-4.4L32 8.3zM25.6 14.7c1.2-.1 4.5 3.2 4.4 4.4L25.2 24c-.9-1.8-2.9-3.7-4.4-4.5L25.6 14.7zM38 11c-.9-1.6-2.7-3.4-4.2-4.2 2.9-2.3 6.1-3.2 7.8-3.6C41.2 4.9 40.3 8.1 38 11zM6.6 27.6l2.6-1.7c5.2-4 6.6.9 19.3 1.1L14.9 40.6C9.7 38 6.8 32.2 6.6 27.6zM12.1 48c-.4-1-.3-1.5-.3-1.5 0 0 .1-.1.3-.1.9 0 2.8.9 4.7 2.8 1.9 1.9 3.6 5 2.4 5-.9 0-2.8-.9-4.7-2.8C13.5 50.3 12.6 49.1 12.1 48zM40.1 56.8l-1.7 2.5c-4.6-.2-10.4-3-13-8.2 1.4-1.4-5.1 5.1 13.6-13.7C39.2 50.2 44.2 51.5 40.1 56.8zM59.2 32.2c-.8-1.6-2.6-3.4-4.2-4.2 2.9-2.3 6.1-3.2 7.8-3.6C62.4 26.1 61.5 29.3 59.2 32.2z"/><path d="M21.2 30.5c.4-.4.4-1 0-1.4s-1-.4-1.4 0l-5.4 5.4c-1.3-1.4-2.4-3.3-2.8-5.3-.1-.5-.7-.9-1.2-.7-.5.1-.9.7-.7 1.2.3 1.4 1.3 4.2 3.6 6.5.5.5 1.2 1.1 1.9.4L21.2 30.5zM36.8 54.4c-1.2-.3-3.4-1-5.3-2.8l5.4-5.4c.4-.4.4-1 0-1.4s-1-.4-1.4 0l-6.1 6.1c-.4.4-.4 1 0 1.4 1.9 2.1 4.4 3.5 7 4.1.5.1 1.1-.2 1.2-.7C37.7 55.1 37.4 54.6 36.8 54.4z"/></svg>