<svg xmlns="http://www.w3.org/2000/svg" viewBox="0 0 64 64"><path d="M59 33H58V30a5 5 0 0 0-5-5H43V22a5 5 0 0 0-5-5H26a5 5 0 0 0-5 5v3H11a5 5 0 0 0-5 5v3H5a1 1 0 0 0-1 1v6a1 1 0 0 0 1 1H6V58a5 5 0 0 0 5 5H53a5 5 0 0 0 5-5V41h1a1 1 0 0 0 1-1V34A1 1 0 0 0 59 33zM23 22a3 3 0 0 1 3-3H38a3 3 0 0 1 3 3v3H39V23a2 2 0 0 0-2-2H27a2 2 0 0 0-2 2v2H23zm14 3H27V23H37zM8 30a3 3 0 0 1 3-3H53a3 3 0 0 1 3 3v3H8zM56 58a3 3 0 0 1-3 3H11a3 3 0 0 1-3-3V41H28v7a1 1 0 0 0 1 1h6a1 1 0 0 0 1-1V41H56zM30 45h4v2H30zm4-2H30V39h4zm24-4H36V38a1 1 0 0 0-1-1H29a1 1 0 0 0-1 1v1H6V35H58zM13 9a1 1 0 0 0-.94 1.35A7.44 7.44 0 0 0 25.55 11h12.9a7.44 7.44 0 0 0 13.49-.65A1 1 0 0 0 51 9H45.45L44.4 8l1.05-1H51a1 1 0 0 0 .94-1.35A7.44 7.44 0 0 0 38.45 5H25.55a7.44 7.44 0 0 0-13.49.65A1 1 0 0 0 13 7h5.55L19.6 8 18.55 9zm6.64 1.72l2.1-2a1 1 0 0 0 0-1.44l-2.1-2A1 1 0 0 0 19 5H14.7A5.46 5.46 0 0 1 19 3a5.32 5.32 0 0 1 5 3.35 1 1 0 0 0 .93.65H39.11A1 1 0 0 0 40 6.35a5.32 5.32 0 0 1 5-3.35A5.46 5.46 0 0 1 49.3 5H45.05a1 1 0 0 0-.69.28l-2.1 2a1 1 0 0 0 0 1.44l2.1 2a1 1 0 0 0 .69.28H49.3a5.46 5.46 0 0 1-4.25 2 5.32 5.32 0 0 1-5-3.35A1 1 0 0 0 39.11 9H24.89a1 1 0 0 0-.93.65A5.32 5.32 0 0 1 19 13a5.46 5.46 0 0 1-4.25-2H19A1 1 0 0 0 19.64 10.72z" data-name="Layer 6"/></svg>